<?xml version="1.0" encoding="utf-8"?>
<!-- Generator: Adobe Illustrator 26.4.1, SVG Export Plug-In . SVG Version: 6.00 Build 0)  -->
<svg version="1.1" id="_x31_1_xA0_Image_00000109712793637069627830000004476538925899431608_"
	 xmlns="http://www.w3.org/2000/svg" xmlns:xlink="http://www.w3.org/1999/xlink" x="0px" y="0px" viewBox="0 0 288 432"
	 style="enable-background:new 0 0 288 432;" xml:space="preserve">
<style type="text/css">
	.st0{fill:#FFFFFF;}
	.st1{fill:#777777;}
</style>
<path class="st1" d="M107.6,141.9c0.9,1.5,1.9,2.9,2.6,4.4c1.4,2.8,2,5.8,2.4,8.9c0.3,2.1,0.7,4.2,1.2,6.2c0.5,2.1,1.8,3.7,3.1,5.4
	c0.7,0.9,1.4,2.1,1.6,3.2c0.4,2.1-1.6,4.3-4.2,4.8c-1.7,0.3-3.3,0.2-4.8-0.5c-2-0.9-4.1-1.8-6-2.8c-2.6-1.4-3.8-3.8-4.2-6.6
	c-0.5-2.9-0.7-5.8-1.2-8.7c-0.7-4.2-1.6-8.3-3.7-12.1c-0.7-1.2-1.6-2.3-2.5-3.3c-0.4-0.4-1-0.8-1.5-1c-2-0.9-3.7,0-3.7,2.1
	c0,1.5,0.3,3.1,0.9,4.6c1.6,4.4,3.5,8.7,5.1,13.1c0.4,1.1,0.7,2.4,0.7,3.7c0.1,2.3-1.6,3.6-3.8,3c-2.6-0.6-5.1-1.2-7.7-1.9
	c-2.3-0.6-4.1-1.9-5.2-4.1c-2.8-5.2-5-10.5-5.9-16.4c-0.3-1.7-0.2-3.3,0.5-4.9c0.4-1,1.1-1.7,2.1-2c2.7-0.6,4.4-2.3,5.6-4.7
	c2-4.1,3.4-8.4,4.4-12.9c0.6-2.6,0.8-5.2,1.2-7.8c0.6-4,2.5-7.1,6.4-8.7c0.8-0.3,1.6-0.5,2.4-0.5c4.1-0.3,8.1-0.3,12,1
	c5.4,1.8,9,5.6,11.6,10.4c2.1,3.9,3.2,8.1,3.2,12.5c0,2.3,0,4.7-0.3,7c-0.4,4.5-4.1,9.6-10.6,8.6C108.7,142,108.2,141.9,107.6,141.9
	z M108.4,125.6c0-4.1-3.9-9.7-8-11.3c-3.5-1.4-6.1,0.5-5.9,4.3c0.1,1.9,0.7,3.6,1.6,5.2c1.7,3,4,5.3,7.5,6.2c2.1,0.6,4-0.4,4.5-2.3
	C108.3,127,108.3,126.3,108.4,125.6z"/>
<path class="st1" d="M114.9,221c-0.3,3.4-0.4,6.9-1.1,10.2c-0.8,3.6-2,7.1-3.3,10.5c-1.6,4.2-5,6.7-9,8.4c-4,1.7-8.1,2-12.4,1.2
	c-2.3-0.4-3.4-1.7-3.8-4c-0.1-0.7-0.2-1.5-0.4-2.2c-0.1-0.6-0.1-1.2-0.9-1.3c-0.8-0.1-1.4,0.2-1.7,0.9c-0.2,0.6-0.4,1.3-0.5,2
	c-0.2,2.9-1.5,4.9-4.2,6.2c-3.9,1.9-7.8,2.9-12.1,1.5c-4.4-1.5-7.2-4.4-7.9-9.1c-0.6-3.7-1.2-7.4-1.7-11.1c-0.3-2-1.3-3.4-3.2-4.2
	c-3.5-1.5-4-2.6-2.9-6.2c1.1-3.5,2.3-7.1,3.4-10.6c0.4-1.3,0.9-2.7,1.4-4c0.2-0.4,0.5-0.8,0.8-1c3.6-1.9,7.2-3.5,11.4-3.5
	c2.9,0,5.2,2,5.4,4.9c0.1,2-0.1,4-0.2,6c-0.2,3.4-0.4,6.9-0.5,10.3c-0.1,3.5,0,7.1,0,10.6c0,1.4,0.4,2.7,1.3,3.8
	c1.4,1.6,3,1.5,3.9-0.5c0.9-2,1-4,0.8-6.1c-0.3-3.5-0.6-7-0.9-10.5c0-0.4,0-0.8,0-1.2c0.1-1.9,0.8-2.8,2.7-3.3
	c2.2-0.6,4.5-0.7,6.8-0.2c2.9,0.7,4.5,2.5,4.4,5.5c0,2.7-0.3,5.4-0.5,8.1c-0.1,2.2-0.5,4.5,0.1,6.7c0.4,1.3,0.9,2.4,2.1,3.1
	c0.7,0.5,1.4,0.5,2.1,0c2-1.4,2.8-3.5,3.1-5.9c0.4-3-0.4-5.9-1.2-8.8c-0.5-1.6-0.9-3.3-1.3-4.9c-0.5-2.3,0.4-4.1,2.6-4.8
	c3.3-1,6.2-2.6,8.8-4.8c1.1-0.9,2.3-1.7,3.8-1.5c2.1,0.2,3.4,1.5,3.8,3.4c0.4,1.9,0.4,3.9,0.5,5.8c0,0.2,0,0.4,0,0.6
	C114.8,221,114.9,221,114.9,221z"/>
<path class="st1" d="M202.1,243.5c-3.7,0.1-7.4,0.3-11.1,0.4c-0.6,0-1.2,0-1.7,0c-1.7-0.1-2.7-1.3-2.5-3c0.1-0.8,0.3-1.6,0.6-2.3
	c1.3-3.9,2.3-7.9,2.4-12c0.1-2.3-0.2-4.7-0.4-7c-0.2-1.7-1-3.1-2.1-4.4c-0.6-0.8-1.3-1.5-1.9-2.3c-0.9-1.3-1-2.7-0.1-4
	c0.5-0.8,1.1-1.6,1.9-2.1c3.5-2.2,7.3-3.6,11.4-3.8c3.7-0.2,5.5,2,4.6,5.7c-0.3,1.4-0.9,2.8-1.2,4.2c-0.4,1.3,0,1.8,1.3,2.2
	c2.2,0.5,4.3,0.5,6.5,0.1c4-0.6,8-1.3,12-2.1c1-0.2,2-0.6,2.9-1.1c1-0.6,1.1-1.2,0.6-2.3c-0.4-0.9-0.9-1.8-1.4-2.6
	c-1.3-2.3-0.8-4.5,1.7-5.5c1.8-0.7,3.7-1.2,5.7-1.4c3.1-0.4,6.2-0.7,9.4-0.9c2.4-0.1,4.1,1.6,4.4,4c0.2,2.1-0.2,4.1-0.8,6.1
	c-2.8,10.4-6.5,20.6-10.1,30.8c-1.3,3.7-3.7,6-7.6,6.9c-3.5,0.8-7,1.2-10.4-0.4c-3.6-1.7-3.8-4.3-1.9-7.3c1-1.6,2.2-3,3.3-4.5
	c0.8-1.1,1.3-2.3,2-3.5c0.4-0.7,0.2-1.3-0.3-1.9c-1.1-1.4-2.6-2.1-4.3-2.1c-2.4,0-4.8,0.1-7.2,0.4c-1.8,0.2-2.7,1.8-2.2,3.9
	c0.4,1.4,1,2.7,1.6,4c0.4,0.9,1,1.8,1.4,2.7c1.1,2.4,0,4.7-2.7,5.1C204.6,243.5,203.3,243.5,202.1,243.5
	C202.1,243.6,202.1,243.5,202.1,243.5z"/>
<path class="st1" d="M221.1,125.1c0.2,3.5,0.3,7,0.5,10.6c0.1,1.9,1,3.6,2,5.2c0.7,1.2,1.5,2.4,2.2,3.6c2.4,4.1,0.5,7.2-3.5,8.5
	c-1.3,0.4-2.8,0.6-4.3,0.6c-4.2,0-8.2,0.5-12.1,1.9c-1,0.4-2.1,0.6-3.1,0.9c-2.3,0.5-4.4-0.7-5.1-2.9c-0.6-1.8-0.6-3.6,0.1-5.4
	c1.5-3.3,3-6.6,4.7-9.9c2.7-5.4,5.5-10.7,7.2-16.5c0.8-2.8,1.7-5.5,1.6-8.5c0-0.9-0.2-1.7-0.4-2.6c-0.9-3.7-4.5-4.4-6.8-3.7
	c-1.9,0.6-2.8,2.2-3.1,4.1c-0.6,3.7-1.1,7.4-1.8,11c-0.3,1.6-0.8,3.2-1.5,4.6c-0.7,1.5-2.1,2.3-3.8,2.3c-1.7-0.1-2.8-1-3.5-2.6
	c-1.1-2.3-1.3-4.7-1.3-7.1c-0.1-5,0-10,1.5-14.9c1.3-4.3,3.8-7.1,7.9-8.7c2.3-0.9,4.7-1.5,7.2-1.4c2.6,0.1,5.2-0.1,7.8,0.2
	c6.2,0.8,11.6,3.4,16.5,7.2c3.8,2.9,6.6,6.6,7.8,11.3c1.2,5.1,1.2,10.1-0.9,15c-0.5,1.2-1.4,2.4-2.4,3.3c-1.6,1.5-3.4,1.2-4.9-0.4
	c-1.7-1.9-1.9-4.2-1.8-6.5c0.2-3.3,0.6-6.6,0.9-9.9c0.1-0.8,0-1.7-0.2-2.6c-0.2-1.4-0.9-2.6-2.4-2.9c-1.3-0.3-2.9,0.5-3.6,1.9
	c-0.5,1.1-1,2.3-1.1,3.5c-0.1,3.6-0.1,7.1-0.1,10.7C221.3,125.1,221.2,125.1,221.1,125.1z"/>
<path class="st1" d="M32.8,140.3c-0.2-6.2,1.6-11.5,5.3-16.4c5.5-7.2,11.8-13.6,19.6-18.4c4-2.5,8.4-4.1,13.2-4.4
	c1.6-0.1,3.3,0,4.9,0.3c4.1,0.9,6.5,3.9,6.5,8.1c0,4.6-1.4,8.8-3.1,13c-0.8,2-1.9,3.9-3.5,5.5c-0.4,0.4-0.8,0.8-1.3,1
	c-3.1,1.8-6.1,0.2-6.3-3.3c-0.1-1.8,0.2-3.6,0.4-5.4c0.1-1.2,0.3-2.4,0.4-3.6c0-0.5,0-1.1-0.2-1.6c-0.3-0.9-1-1.2-1.8-0.9
	c-3,1.3-5.1,3.3-5.6,6.8c-0.4,2.5,0.1,4.9,0.9,7.3c2.5,6.9,5.1,13.7,7.6,20.6c0.8,2.2,1.4,4.5,2,6.7c0.4,1.6,0.2,3.2-0.3,4.8
	c-0.6,1.8-2,2.7-3.9,2.4c-1.1-0.2-2.3-0.5-3.3-1.1c-4.1-2.3-8.4-3.9-13-5c-4.7-1.2-5.5-2.8-4.8-7.6c0.3-2,1.2-3.9,1.6-5.9
	c0.8-3.4,0.2-6.7-1-10c-0.1-0.2-0.2-0.4-0.3-0.6c-1.1-1.6-2-1.6-3.3-0.2c-1.1,1.3-1.6,2.9-1.6,4.5c0,3.2,0.2,6.5,0.3,9.7
	c0,0.6,0,1.2,0,1.8c-0.1,1.5-1,2.6-2.4,3.2c-1.5,0.6-2.9,0.3-4-0.8c-0.7-0.7-1.3-1.6-1.7-2.5C33,145.8,32.6,143,32.8,140.3z"/>
<path class="st1" d="M81.6,262.2c0,0.5,0.1,1,0,1.5c-0.3,2.2,0.8,3.6,2.5,4.9c1.2,0.9,2.3,1,3.3-0.1c1.4-1.6,2.8-3.3,4-5
	c0.7-1,1.3-2.1,1.8-3.3c1.8-4.6,5.5-7,10.1-8c1.7-0.3,3.4-0.2,5.1-0.1c1.5,0.1,2.7,1.2,3.1,2.7c0.6,1.9,1,3.8,1.4,5.8
	c0.3,1.6-0.8,3.1-2.6,3.9c-1.3,0.5-2.6,0.9-3.9,1.4c-2,0.6-4,1.1-5.9,1.8c-1,0.4-2,0.9-2.8,1.6c-0.4,0.3-0.6,1.2-0.5,1.6
	c0.2,0.4,0.9,0.9,1.4,0.9c2,0,4,0,5.9-0.3c2.6-0.4,5.1-1.1,7.6-1.7c3.5-0.9,6.4,0,8.4,3c2.4,3.5,4.1,7.3,5.2,11.4
	c0.8,2.9-1.4,5.3-4.8,5.4c-2.4,0.1-4.4-1.1-6.5-2.1c-2.8-1.4-5.5-3-8.5-4c-4.2-1.4-8.6-1.8-13.1-1.6c-0.8,0-1.7,0.1-2,1
	c-0.3,0.9,0.4,1.5,1.1,2c1.4,0.9,2.8,1.7,4.2,2.5c1.5,0.9,3.2,1.6,4.6,2.6c2,1.4,2.2,3.1,0.6,5c-1.8,2.2-4.1,3.7-6.8,4.7
	c-1.5,0.5-2.8,0-3.8-1c-1.5-1.6-2.8-3.2-4.3-4.8c-6.2-6.9-11.7-14.4-16.6-22.2c-1.6-2.5-3-5.1-4.3-7.8c-1-1.9-0.2-3.7,1.8-4.6
	c3.2-1.3,6.3-2.6,9.6-3.8c1.9-0.7,3.5,0,4.2,1.9c0.5,1.6,0.6,3.3,0.8,5C81.8,262.2,81.7,262.2,81.6,262.2z"/>
<path class="st1" d="M152.9,167.9c-0.7-0.1-1.5-0.2-2.2-0.5c-1.6-0.5-2.5-1.6-2.5-3.3c0-1.4,0.2-2.9,0.7-4.2c1-2.9,2.4-5.6,3.5-8.4
	c1.5-3.7,2-7.7,2.4-11.6c0.8-6.7,3.6-12.4,7.8-17.6c2.7-3.4,5.7-6.8,9.1-9.5c1.7-1.4,3.7-2.6,5.8-3.4c3.5-1.4,6.4,0,7.8,3.4
	c0.5,1.3,0.9,2.8,1,4.2c0.3,4.2-0.1,8.3-0.2,12.5c-0.1,3,0,6,0.3,9c0.2,1.6,1,3.1,1.8,4.6c1.4,2.6,3.1,5.1,4.4,7.8
	c1.1,2.4,0.6,4.4-1.5,6.1c-4,3.3-8.6,5.3-13.8,5.8c-0.9,0.1-1.9-0.1-2.8-0.3c-1.6-0.5-2.4-1.6-2-3.2c0.6-2.3,1.4-4.6,2.1-6.9
	c0.3-1.2,0.6-2.4,0.8-3.6c0.1-1-0.4-1.8-1.2-2.5c-3.1-2.6-7.6-2.2-10,1.1c-1.2,1.6-1.4,3.4-0.3,5c0.9,1.4,1.9,2.6,2.9,4
	c1.9,2.6,1.9,4.1-0.6,6.1C162.4,165.6,158,167.4,152.9,167.9z M177.2,124.4c-0.2-0.6-0.2-1.3-0.5-1.8c-0.6-1.5-1.4-1.9-2.9-1.4
	c-0.8,0.3-1.6,0.7-2.3,1.2c-2.9,2.3-4.6,5.5-5.8,8.9c-0.3,0.9,0.1,1.4,1.2,1.6c2.1,0.5,4.1,0.1,5.9-0.6c0.9-0.4,1.8-1.1,2.3-1.9
	C176.4,128.7,177,126.6,177.2,124.4z"/>
<path class="st1" d="M68,182.3c-0.2,0.8-0.3,2.4-0.8,3.9c-1.6,4.7-6.5,7.2-11.6,5.8c-3.4-0.9-6.6-2.3-9.9-3.4
	c-0.8-0.3-1.5-0.5-2.3-0.7c-2.1-0.4-3.2,0.6-3,2.7c0.3,2.5,1.4,4.6,2.9,6.5c1.7,2,3.6,3.8,5.5,5.6c1.3,1.2,2.3,2.6,2.2,4.4
	c-0.1,3.2-0.5,6.4-0.8,9.6c-0.1,0.9-0.5,1.8-0.9,2.6c-1.3,3-4.2,3.4-6.3,0.9c-2.3-2.7-4.2-5.6-5.7-8.9c-3.4-7.4-5.8-15.1-7-23.2
	c-1-6.5-0.9-13-0.2-19.6c0.3-2.7,0.8-5.4,2-8c1.2-2.5,3.1-3.6,5.8-3.4c1.7,0.1,3.4,0.4,5.1,0.9c6.6,1.8,12.8,4.3,18.1,8.8
	C65.6,170.7,67.7,175.6,68,182.3z M39.9,172.9c0,2.4,0.8,4.5,2.8,5.7c1.9,1.2,3.9,2.2,6,3c2.1,0.8,4.3,0.7,6.4-0.3
	c1.7-0.8,2.2-2.1,1.4-3.9c-0.7-1.7-2-3-3.3-4.2c-2.2-2-4.3-3.9-7.1-5c-3.5-1.4-5.4,0.4-6,3.3C39.9,172.1,39.9,172.6,39.9,172.9z"/>
<path class="st1" d="M185.2,241.9c-0.2,2.7-0.6,5.5-0.7,8.2c-0.3,7.1-0.6,14.2-0.1,21.3c0.1,1.8-0.1,3.6-0.5,5.3
	c-1.2,4.4-5.6,6.4-9.8,4.8c-3.8-1.4-7-3.8-10.1-6.2c-3.1-2.5-6.1-5.2-9.1-7.8c-0.9-0.7-1.7-1.4-2.6-2.1c-0.2-0.2-0.4-0.3-0.7-0.4
	c-0.7-0.3-1.6-0.6-2.2,0c-0.6,0.6-0.2,1.5,0.2,2c0.7,1,1.5,1.9,2.4,2.7c2.7,2.2,5.4,4.2,8.1,6.3c0.7,0.6,1.4,1.3,2,2.1
	c1,1.2,0.8,2.9-0.3,3.9c-2,1.9-4.3,3-7.1,3c-1,0-1.9-0.3-2.6-1.1c-1.6-2.1-3.4-4.1-4.8-6.3c-3-4.8-5.9-9.6-8.6-14.6
	c-1.5-2.7-1.9-5.7-2.1-8.7c-0.2-2.5,1.4-4.1,3.2-5.5c1.8-1.4,4-1.9,6.2-1.9c1.6,0,2.9,0.7,4,1.8c1.9,2.1,3.7,4.2,5.5,6.4
	c3,3.6,6.1,7,9.9,9.8c0.9,0.7,1.9,1.2,3,1.7c1.3,0.6,2.5,0.1,3.1-1.2c1.4-2.6,1.4-5.3,1-8.1c-0.6-4.2-1.2-8.3-1.7-12.5
	c-0.1-1-0.1-2.1,0.1-3.1c0.2-0.7,0.7-1.4,1.3-1.9c2.3-1.7,4.9-2.8,7.6-3.6c3-0.8,4.9,0.7,5,3.8C185.2,240.9,185.1,241.4,185.2,241.9
	C185.2,241.9,185.2,241.9,185.2,241.9z"/>
<path class="st1" d="M135.1,230.6c0.2-1.8,0.4-3.6,0.7-5.3c0.9-5,4-7.9,9-8.9c5.2-1.1,10.5-1.9,15.6-3.2c4.3-1.1,8.7-1.8,13.1-2.5
	c3.6-0.6,6.9,0.1,9.9,2.4c1.4,1.1,2.1,2.5,2.3,4.2c0.3,2.6-0.3,5-1,7.5c-0.7,2.5-1.4,5.1-3,7.2c-0.5,0.7-1.2,1.4-2,1.9
	c-2.8,1.8-5.6,0.3-5.8-3c-0.1-1.7,0-3.5,0-5.2c0-1.1,0-2.1-0.2-3.2c-0.1-0.6-0.3-1.3-0.7-1.8c-1.1-1.6-2.4-1.8-4.1-0.9
	c-1.5,0.8-2.4,2-2.9,3.5c-1.2,3.3-1.1,6.7-0.5,10.1c0.7,3.9,1.5,7.8,2,11.7c0.2,1.5,0,3.1-0.5,4.5c-1.1,3.4-4.7,4.7-7.7,2.7
	c-2.2-1.5-4.2-3.3-6.3-5.1c-0.7-0.6-1.4-1.2-2.1-1.9c-1.8-1.7-2-3.5-0.6-5.6c1-1.4,2.1-2.8,3-4.3c1.4-2.2,2.1-4.7,2.1-7.3
	c0-1.7-0.8-2.6-2.6-2.9c-3.2-0.5-6,0.9-7.8,4.2c-0.9,1.8-1.7,3.6-2.6,5.3c-0.5,0.9-1.1,1.7-1.8,2.3c-1.6,1.4-3.6,0.9-4.6-0.9
	C135.5,235,135.3,233.8,135.1,230.6z"/>
<path class="st1" d="M81.9,197.1c-0.6,1.2-0.4,2.3,0.2,3.3c0.9,1.5,1.7,3.1,2.7,4.5c1.4,2,4.4,2.2,6.4,0.4c1.7-1.6,3.2-3.3,4.9-4.9
	c1.2-1.2,2.7-2.1,4.4-2.4c1.5-0.3,2.7,0.2,3.7,1.5c2.2,3,2.3,6.3,1.5,9.7c-0.4,1.6-1.5,2.8-2.9,3.7c-2.8,1.7-5.8,2.6-9.1,2.9
	c-2.3,0.2-4.6,0.3-6.9,0.3c-2.3,0-4.1-1.2-5.4-3c-4.4-5.9-7.4-12.4-9.4-19.4c-1.7-6-2.9-12.1-2.4-18.3c0.1-1.5,0.5-3,1.1-4.4
	c0.9-2.3,2.8-3.3,5.3-3.4c5.7-0.2,11.2,0.8,16.6,2.8c1.3,0.5,2.5,0.9,3.8,1.4c3.4,1.4,5.2,4,5.6,7.6c0.2,1.8,0.1,3.6,0,5.5
	c-0.1,1.2-0.7,2.2-1.6,3c-0.7,0.6-1.5,0.7-2.3,0.5c-1.1-0.3-2-0.9-2.7-1.9c-0.4-0.6-0.8-1.3-1.2-2c-2.7-5.6-7.5-7.7-13.4-7.9
	c-1.6-0.1-2.7,1-2.8,2.7c-0.1,2.6,0.1,5.2,0.9,7.7c0.5,1.4,1.2,1.8,2.6,1.5c1.7-0.4,3.3-0.9,5-1.3c2.3-0.5,4.2,0.3,5.3,2.4
	c1.1,2,1.4,4.2,0.9,6.4c-0.5,2.1-2.4,3.4-4.6,3.1c-1.6-0.2-3.2-0.7-4.8-1.1C82.7,197.3,82.4,197.2,81.9,197.1z"/>
<path class="st1" d="M245.1,156c-0.2,1.8-0.4,3.7-0.8,5.5c-0.1,0.7-0.5,1.3-0.9,1.9c-0.8,1.1-2,1.4-3.3,1c-1-0.4-2-0.8-2.9-1.3
	c-0.9-0.5-1.9-0.6-2.9-0.3c-2.7,0.9-5.5,1.8-8.2,2.6c-3.1,0.9-4.3,2.6-3.9,6.7c0,0.3,0.1,0.6,0.2,0.9c0.4,1,0.8,1.4,1.9,1.1
	c1.3-0.3,2.6-0.8,3.9-1.2c0.9-0.3,1.7-0.6,2.6-0.7c1.2-0.2,2.1,0.4,2.7,1.4c1.3,2.1,1.2,5.2-0.3,7.2c-0.5,0.6-1.3,1.1-2,1.3
	c-0.9,0.3-2,0.4-2.9,0.6c-0.5,0.1-1,0.4-1.2,0.8c-0.7,1.4-1,2.8-0.6,4.4c0.2,0.8,0.7,1.3,1.6,1.4c2.6,0.3,4.8-0.3,6.3-2.6
	c1.2-1.9,2.5-3.7,3.8-5.5c1.1-1.5,2.7-2.1,4.6-1.7c1.9,0.4,3,1.5,3.2,3.5c0.2,2.7-0.1,5.4-1,8c-0.5,1.5-1.6,2.5-2.9,3.2
	c-3.8,1.9-7.9,3-11.9,4c-2.3,0.6-4.6,0.9-6.9,1.2c-2.4,0.3-4.8-0.1-7.1-0.8c-1.8-0.6-2.4-1.7-2-3.5c0.3-1.5,0.7-3,1.2-4.5
	c1.2-3.3,1.2-6.7,0.1-10c-1.1-3.4-2.4-6.8-3.7-10.1c-1-2.5-1.8-4.9-1.2-7.6c0.6-2.8,2.8-4.5,5.6-4.6c2.1,0,4.2-0.1,6.2-0.3
	c3-0.3,5.6-1.5,8-3.3c2.1-1.5,4.2-3.1,6.5-4.4c1.1-0.6,2.4-0.8,3.7-1c2-0.2,3.4,1,3.8,2.9C244.8,153.4,244.9,154.7,245.1,156z"/>
<path class="st1" d="M198.9,246.2c8.2,0.1,14.8,3,20.5,7.9c3.6,3.2,4.6,7.5,4.3,12.2c-0.4,6.2-3.3,11.2-8.2,15
	c-5.9,4.7-12.6,8-20.1,9.3c-2.2,0.4-4.3,0.2-6.3-1.1c-0.7-0.4-1.1-1-1-1.8c0.2-1.2,0.4-2.5,0.6-3.7c0.5-2.8,1-5.6,1.5-8.4
	c1-5.7,0.7-11.4-0.4-17c-0.4-2.1-0.6-4.2-0.7-6.3c-0.1-2.4,1.1-4.2,3.4-5c0.7-0.3,1.5-0.6,2.3-0.7
	C196.3,246.4,197.8,246.3,198.9,246.2z M213.1,266c0.1-2.7-1.1-4.6-3.2-6.1c-2-1.4-4.2-2.2-6.6-2.5c-2.1-0.3-3,0.4-3.1,2.5
	c-0.1,1.9,0,3.8-0.2,5.7c-0.3,4.2-0.6,8.4-1.1,12.6c-0.2,1.8,0.3,2.5,2.2,2.3c2.8-0.3,5-1.8,7-3.7C211.2,273.8,213,270.3,213.1,266z
	"/>
<path class="st1" d="M164,167.4c3.4,0,6.2,0.3,8.8,1.9c4.2,2.6,6,6.9,4.8,11.6c-0.9,3.4-2.7,6.1-5.3,8.4c-4,3.3-8.6,5.1-13.7,6
	c-0.8,0.1-1.6,0.3-2.4,0.4c-1.2,0.2-1.3,0.6-0.6,1.5c0.5,0.6,1.1,1.2,1.7,1.7c1,0.8,2,1.5,3,2.3c1.7,1.3,2.2,3.1,1.8,5.2
	c-0.2,1.2-1,2.2-2.2,2.5c-4,1.3-8.1,2.6-12.2,3.7c-2.3,0.6-3.8-1.2-3.3-3.5c0.2-0.9,0.4-1.9,0.7-2.8c1-3.3,0.5-6.4-0.2-9.7
	c-0.8-3.9-2.9-7.2-4.8-10.5c-0.4-0.7-0.8-1.4-1.2-2.2c-1-2-0.9-4,0.3-5.9c1.7-2.8,4.4-4.6,7.1-6.1C152,168.8,158.1,167.5,164,167.4z
	 M161.7,176C161.7,176,161.7,176.1,161.7,176c-0.4,0.1-0.7,0.1-1.1,0.1c-3.3,0.2-6.7,0.4-9.7,2c-1.7,0.8-2.1,1.9-1.8,3.8
	c0.3,2.1,1.5,3.9,2.6,5.6c1.1,1.7,2.9,2.1,4.6,0.9c0.6-0.4,1.1-0.9,1.6-1.4c2.1-2,4.3-3.7,6.9-5c0.8-0.4,1.5-1,2.3-1.6
	c1-0.9,1.1-2.1,0.1-3c-0.5-0.5-1.2-0.9-1.9-1.1C164,176.1,162.8,176.1,161.7,176z"/>
<path class="st1" d="M114.2,321.4c0.4,0.5,0.7,1.1,1.2,1.5c2.4,1.7,4.8,3.3,7.2,5c0.7,0.5,1.4,1.2,2,1.9c1,1.2,1.1,2.5,0.2,3.7
	c-0.7,0.9-1.5,1.7-2.5,2.4c-1.4,0.9-2.5,0.7-3.6-0.5c-2.9-3-5.7-6-8.6-8.9c-4.9-4.8-9.2-10.1-13.4-15.5c-2-2.5-1.9-4.2,0.3-6.6
	c1.2-1.3,2.5-2.2,4.1-2.9c1.3-0.5,2.6-0.4,3.7,0.5c2.7,2.3,5.4,4.6,8.2,6.9c1.9,1.6,3.9,2.9,6.2,3.7c0.7,0.2,1.6,0.7,2.2,0
	c0.6-0.7-0.2-1.4-0.5-1.8c-0.9-1.1-1.9-2.2-2.9-3.2c-2.2-2.2-4.6-4.3-6.8-6.6c-0.9-0.9-1.6-1.9-2.2-3c-0.8-1.4-0.3-2.9,1-3.8
	c1.4-1.1,3-1.5,4.8-1.6c1.7-0.1,3.5-0.2,5.2-0.3c1.9-0.1,3.2,0.9,4.4,2.2c1.6,1.9,2.5,4.1,3.1,6.4c2.1,7.3,4,14.6,5.9,22
	c0.7,2.7-0.7,5.7-2.9,6.9c-1.1,0.6-2.2,0.6-3.2,0c-1.6-1-3.2-2.1-4.8-3.2c-1.8-1.3-3.5-2.8-5.4-4.1c-0.7-0.5-1.6-0.9-2.4-1.3
	C114.4,321.1,114.3,321.3,114.2,321.4z"/>
<path class="st1" d="M143.1,164.5c-0.1,1.2-0.2,2.1-0.4,3c-0.6,3.4-2.7,5.5-5.9,6.6c-2.1,0.7-4.3,1.2-6.6,1
	c-2.6-0.2-4.8-1.3-6.4-3.3c-5-6.1-6.2-12.8-3.2-20.1c1.4-3.3,1.8-6.8,2.3-10.3c0.5-3.8-0.3-7.5-0.7-11.3c-0.1-1.5-0.4-3.1-0.4-4.6
	c0-4.4,2.8-6.5,7.1-5.5c1.7,0.4,3.2,1.3,4.3,2.6c3.4,4,6.9,8,10,12.3c2.5,3.5,3.1,7.5,2.1,11.8c-0.4,1.5-1.3,2.4-2.5,2.5
	c-1.3,0.1-2.5-0.9-2.9-2.3c-0.3-1.1-0.6-2.2-0.9-3.3c-0.6-2.5-2.4-3.7-4.7-4.3c-0.4-0.1-1.1,0.3-1.4,0.7c-1.2,1.9-1.6,4-1.6,6.2
	c0,0.7,0.5,1,1.1,1.3c1.1,0.4,2.3,0.8,3.3,1.5c0.6,0.4,1.3,1.2,1.4,1.9c0.4,2.2,0.1,4.3-1.3,6.2c-1,1.3-1.9,1.5-3.4,1
	c-0.5-0.2-1-0.4-1.4-0.6c-0.5-0.2-0.8,0-1,0.5c-0.5,2.2-0.3,4.4,0.5,6.4c0.6,1.6,1.9,1.9,3.3,1c0.8-0.6,1.5-1.4,2.2-2.2
	c0.8-0.9,1.6-1.9,2.5-2.7c1.6-1.4,3.4-0.9,4.1,1.1C142.9,162.8,143,163.8,143.1,164.5z"/>
<path class="st1" d="M109.7,195.7c-1.6-1-3.3-1.8-3.5-3.9c-0.2-2,0.8-3.3,2.4-4.2c-0.5-1.1-1-2-1.3-3c-0.5-1.4-0.6-2.9,0.3-4.2
	c1.1-1.7,3.4-2.3,5.5-1.4c1.1,0.5,2,1.3,2.9,2.1c0.4,0.3,0.7,0.8,1.2,1.3c0.2-0.7,0.3-1.2,0.5-1.7c0.5-1,0.9-2.1,1.5-3.1
	c1.6-2.5,5.8-1.6,6.6,0.6c0.5,1.2,0.8,2.5,1.1,3.8c0.1,0.4,0.1,0.7,0.1,1.4c0.3-0.4,0.5-0.7,0.6-0.8c0.5-0.6,1-1.3,1.6-1.8
	c1.3-1.1,2.7-1.7,4.3-0.9c1.7,0.8,2.8,2.2,3,4.2c0.2,2.3-0.7,4.3-1.6,6.3c-0.1,0.3-0.3,0.6-0.5,1.1c2.3-0.1,4.2,0.4,5.7,2.1
	c0.9,1,1.4,2.2,1.5,3.6c0.2,2.4-1.1,3.9-4.8,5.3c0.3,0.5,0.5,1,0.8,1.5c1,1.6,1.1,3.4,0.9,5.2c-0.4,2.9-2.6,4.4-5.5,3.8
	c-1.6-0.3-2.9-1.1-4.2-2.1c-0.6-0.5-1.2-1-1.8-1.5c-0.6,0.8-1.1,1.7-1.7,2.4c-1.8,2.3-5.5,2.9-7.9,1.3c-2.3-1.5-2.5-3.8-2.3-6.2
	c0-0.7,0.2-1.3,0.3-2.1c-0.8,0.1-1.5,0.3-2.2,0.2c-1.2-0.1-2.5-0.2-3.6-0.7c-1.6-0.6-2.3-2-2.4-3.8
	C107.4,198.6,107.6,196.8,109.7,195.7z M116,194.8c0,4.4,3.4,7.8,7.8,7.8c4.3,0,7.8-3.5,7.8-7.7c0-4.3-3.5-7.8-7.8-7.8
	C119.4,187.1,116,190.5,116,194.8z"/>
<path class="st1" d="M185.4,294.1c3.4,0.2,6.7,1,9.9,2c4.4,1.4,5.5,5.1,4.5,8.6c-0.9,3.1-2.7,5.7-5.2,7.8c-0.2,0.2-0.5,0.4-0.8,0.5
	c-1.5,0.8-2.7,0.2-3.2-1.4c-0.3-0.9-0.5-1.8-0.8-2.7c-0.4-1.2-1.2-1.9-2.2-1.8c-0.9,0.1-1.7,0.7-1.9,2c-0.1,1.1,0,2.2,0.2,3.2
	c0.3,2,0.9,4,1.2,6c0.5,3.7-0.9,6.7-3.2,9.5c-4.4,5.2-9.5,9.7-15.7,12.9c-1.4,0.7-2.9,1.1-4.4,1.6c-0.9,0.3-1.7-0.1-2.3-0.8
	c-0.9-1.1-1.4-2.4-1.5-3.8c-0.2-2.8-0.3-5.6,1.8-7.9c1.4-1.5,2.4-1.7,4.3-0.8c1.1,0.5,2.1,1.4,3.5,0.9c1.9-0.8,3.4-2,4.4-3.9
	c1.1-2.2,1.4-4.5,1.6-6.9c0.1-1.6-0.1-3.3-0.1-5c0-4-0.3-8,0-11.9c0.3-3.1,1.8-5.9,5-7.1C182.1,294.5,183.8,294.4,185.4,294.1z"/>
<path class="st1" d="M193.9,169.4c-0.6,4.3-1.2,8.6-1.8,12.9c-0.3,2-0.5,3.9-0.7,5.9c-0.1,1.4,0.2,1.6,1.6,1.8
	c3.6,0.5,6.4-0.6,8.5-3.7c0.6-0.9,1.3-1.8,2-2.7c1.2-1.4,2.7-2.2,4.5-2.1c1.9,0.1,3.2,1.4,3.2,3.3c0.1,3.2-0.3,6.4-1.1,9.5
	c-0.8,3.1-3.2,4.1-6,4.5c-1.5,0.2-3.1,0.4-4.6,0.5c-3.4,0.2-6.4,1.3-9.3,3c-1.2,0.7-2.6,1.2-4,1.6c-2.7,0.8-4.4-0.5-4.8-3.3
	c-0.4-3-0.1-5.9,0.3-8.8c0.8-5.9,0.4-11.7-1.7-17.2c-0.5-1.2-1.3-2.3-2.1-3.4c-0.4-0.6-0.8-1.1-1.1-1.7c-0.8-1.5-0.4-2.9,1.3-3.5
	c1.5-0.6,3.1-0.9,4.6-1.2c1.8-0.4,3.6-0.8,5.5-1.1c0.7-0.1,1.5-0.1,2.2,0c1.9,0.3,2.9,1.2,3.3,3.1
	C193.8,167.5,193.8,168.5,193.9,169.4z"/>
<path class="st1" d="M138.5,336.2c0.1-10.9-2.5-21.2-6.1-31.4c-0.7-2-1.4-3.9-2.1-5.9c-0.3-0.9-0.5-1.9-0.7-2.9
	c-0.2-1.6,0.4-2.7,1.7-3.6c1.5-1,3.2-1.2,4.9-1.4c2.9-0.3,5.7-0.6,8.6-0.8c2.8-0.2,4.8,1.2,5.9,3.7c1.2,2.7,1.3,5.5,0.6,8.3
	c-0.2,0.8-1,1.5-1.6,2c-0.6,0.5-1.5,0.4-2.1-0.2c-1-1-1.9-2-2.8-3c-0.6-0.6-1.1-1.2-2-1c-0.9,0.2-1.4,1-1.5,1.8
	c-0.1,1.2-0.1,2.4-0.1,3.6c0.1,1.2,0.2,2.5,0.4,3.7c0.2,1.3,0.5,1.7,1.8,1.9c0.6,0.1,1.1,0.2,1.7,0.2c3.3,0.1,4,3,3.9,5.2
	c-0.1,1.5-0.9,2.6-2.2,3.5c-0.7,0.5-1.4,1-2.2,1.5c-0.7,0.5-1,1.2-1,2.1c0.1,2.8,0.3,5.6,0.3,8.4c0.1,2.2,0.8,2.9,3,2.7
	c1.1-0.1,2.3-0.3,3.4-0.3c1.8,0,3.2,1.2,3.6,3c0.6,3.1-0.9,6-3.8,7.2c-2.7,1.1-5.5,1.6-8.4,1c-2.3-0.5-3.5-1.8-3.5-4.2
	c0-0.8,0-1.7,0-2.5C138.5,337.8,138.5,337,138.5,336.2z"/>
<path class="st1" d="M167.2,288.7c1.6,0,3.2,0.2,4.6,1.1c1.3,0.8,2.1,1.9,2.4,3.4c0.4,2.2,0.4,4.4-0.3,6.5c-0.8,2.2-2.7,2.8-4.6,1.4
	c-0.6-0.5-1.3-1-1.9-1.4c-0.8-0.6-1.5-0.4-1.7,0.6c-0.2,0.7-0.1,1.5,0.1,2.1c0.9,2.4,2,4.8,3.1,7.2c2.5,5.4,1.3,10.3-2.6,14.6
	c-3,3.2-6.5,5.8-10.7,7.3c-2.8,1-4.8-0.3-4.9-3.3c-0.1-2.5,0.1-4.9,0.3-7.4c0.2-2,2.3-3.3,4.2-2.7c0.6,0.2,1.3,0.5,1.9,0.7
	c1.2,0.4,2,0.2,2.7-0.9c1.2-1.8,1.3-3.7,0.5-5.7c-1.2-2.8-2.3-5.7-3.4-8.6c-0.8-2.2-1.3-4.5-0.9-6.8c0.7-4.1,4.1-7.2,8.3-7.8
	C165.3,288.8,166.2,288.8,167.2,288.7z"/>
<path class="st1" d="M132.4,232.9c-0.2,3.2,0.6,6,1.4,8.7c0.7,2.1,1.3,4.2,1.7,6.4c0.3,1.8-0.1,3.6-0.8,5.4c-0.4,0.9-1,1.6-2,1.9
	c-4.3,1.5-8.4,1-12.3-1.2c-1.1-0.7-1.7-1.6-1.5-3c0.3-2.6,0.7-5.2,1-7.8c0.4-3.2-0.1-6.3-1.1-9.4c-0.8-2.4-1.6-4.9-2.2-7.4
	c-0.5-2.5,0.7-3.9,3.2-3.6c2.2,0.3,4.4,1,6.6,1.6c1.1,0.3,2.2,0.8,3.3,1.3c2.2,1,2.7,2.8,2.7,5C132.5,231.6,132.4,232.4,132.4,232.9
	z"/>
<path class="st1" d="M136.1,288.7c-1.4-0.4-2.9-0.7-4.3-1.2c-1.3-0.5-2-1.6-2.2-3.1c-0.3-3.1-1.7-5.7-3.4-8.2
	c-1.2-1.8-2.6-3.5-3.8-5.3c-1.6-2.4-1-4.1,1.7-5.1c2.4-0.8,4.8-1.4,7.2-1.8c1.8-0.3,3.2,0.6,4,2.3c0.8,1.7,1.5,3.5,2.2,5.2
	c0.8,2.2,2.2,4,4.1,5.5c1,0.8,2,1.6,2.9,2.3c1.6,1.3,2.2,3.7,1.4,5.7c-0.4,1-1.2,1.6-2.2,1.9c-2.5,0.9-5,1.4-7.6,1.4
	C136.1,288.5,136.1,288.6,136.1,288.7z"/>
<path class="st1" d="M126.1,257.1c1.6,0.1,3.1,0.1,4.7,0.3c0.7,0.1,1.4,0.3,2,0.7c1.2,0.7,1.5,2.1,0.7,3.2c-0.5,0.7-1.1,1.4-1.9,1.7
	c-2.7,0.9-5.4,2.1-8.5,1.9c-1.3-0.1-2.2-0.6-2.7-1.8c-0.5-1.3-1-2.6-0.6-4c0.3-1.3,1.4-2.1,2.7-2.1c0.6,0,1.2,0,1.8,0
	C125,257,125.6,257,126.1,257.1C126.1,257,126.1,257.1,126.1,257.1z"/>
<path class="st1" d="M127.8,223.5c-2.7,0.1-5.2-0.6-7.6-1.7c-1.7-0.8-2.3-1.7-2.1-3.1c0.2-1.4,1.7-2.9,3.1-3
	c3.4-0.3,6.5,0.4,9.3,2.2c1.3,0.9,1.9,2.3,1.6,3.4c-0.4,1.3-1.6,2.1-3.3,2.2C128.5,223.5,128.2,223.5,127.8,223.5z"/>
</svg>
